<?xml version="1.0" standalone="no"?>
<!DOCTYPE svg PUBLIC "-//W3C//DTD SVG 20010904//EN"
 "http://www.w3.org/TR/2001/REC-SVG-20010904/DTD/svg10.dtd">
<svg version="1.0" xmlns="http://www.w3.org/2000/svg"
 width="557.000000pt" height="128.000000pt" viewBox="0 0 557.000000 128.000000"
 preserveAspectRatio="xMidYMid meet">
<metadata>
Created by potrace 1.16, written by Peter Selinger 2001-2019
</metadata>
<g transform="translate(0.000000,128.000000) scale(0.100000,-0.100000)"
fill="#000000" stroke="none">
<path d="M3284 1140 c-87 -12 -122 -56 -137 -170 l-11 -80 -38 0 -38 0 0 -45
0 -45 40 0 40 0 0 -194 0 -193 -40 -7 c-38 -6 -40 -8 -40 -41 l0 -35 145 0
145 0 0 34 c0 33 -2 35 -45 42 l-45 6 0 194 0 193 58 3 57 3 3 43 3 42 -60 0
-61 0 0 54 c0 77 25 106 91 106 35 0 49 4 49 14 0 7 3 27 6 44 6 29 5 30 -38
33 -24 2 -62 2 -84 -1z"/>
<path d="M2390 1095 c0 -33 2 -35 40 -41 l40 -7 0 -317 0 -317 -40 -7 c-38 -6
-40 -8 -40 -41 l0 -35 140 0 140 0 0 34 c0 33 -2 35 -45 42 l-45 6 0 359 0
359 -95 0 -95 0 0 -35z"/>
<path d="M1942 886 c-84 -28 -92 -38 -92 -117 l0 -70 43 3 c40 3 42 4 45 39 3
30 9 39 38 52 94 45 184 -5 184 -101 l0 -30 -98 -4 c-165 -6 -242 -63 -242
-177 0 -107 57 -163 168 -164 59 0 108 18 148 55 21 19 21 19 27 -12 l7 -30
75 0 75 0 0 35 c0 31 -3 35 -25 35 l-25 0 0 178 c0 164 -2 181 -22 222 -32 64
-88 93 -187 97 -46 2 -93 -3 -119 -11z m218 -349 c0 -52 -19 -81 -70 -107 -78
-40 -160 -16 -160 46 0 68 55 104 158 104 l72 0 0 -43z"/>
<path d="M3599 886 c-59 -21 -107 -64 -136 -124 -23 -48 -28 -69 -28 -142 0
-106 17 -167 62 -220 50 -59 102 -82 182 -82 164 -1 254 105 253 297 0 98 -24
164 -80 218 -63 61 -168 84 -253 53z m149 -96 c45 -28 73 -92 73 -173 1 -118
-34 -186 -107 -206 -103 -28 -184 76 -171 221 6 73 33 127 76 155 42 28 86 29
129 3z"/>
<path d="M4253 874 c-24 -14 -43 -29 -43 -35 0 -5 -4 -9 -10 -9 -5 0 -10 14
-10 30 l0 30 -96 0 -95 0 3 -37 c3 -35 5 -38 46 -46 l42 -8 0 -193 0 -194 -45
-6 c-43 -7 -45 -9 -45 -42 l0 -34 140 0 140 0 0 35 c0 33 -2 35 -40 41 l-40 7
0 159 0 160 29 29 c26 26 37 29 89 29 l60 0 6 45 c4 25 4 49 1 55 -12 20 -89
11 -132 -16z"/>
<path d="M4923 890 c-17 -4 -48 -16 -70 -27 l-38 -20 -3 -71 -3 -72 44 0 c44
0 44 0 51 41 5 34 12 42 41 55 44 18 88 18 125 -1 37 -19 50 -43 50 -94 l0
-41 -73 0 c-150 0 -248 -57 -262 -152 -16 -108 38 -182 140 -188 79 -5 104 0
154 34 l51 35 0 -30 0 -29 80 0 80 0 0 35 c0 30 -3 35 -24 35 -13 0 -27 7 -30
16 -3 9 -6 89 -6 179 0 174 -6 204 -48 248 -45 47 -166 70 -259 47z m197 -358
c0 -40 -5 -53 -27 -74 -56 -54 -138 -64 -178 -23 -29 28 -31 45 -9 86 20 41
65 58 147 59 l67 0 0 -48z"/>
<path d="M2722 853 c3 -35 5 -38 46 -46 l42 -8 0 -193 0 -194 -45 -6 c-43 -7
-45 -9 -45 -42 l0 -34 140 0 140 0 0 35 c0 33 -2 35 -40 41 l-40 7 0 238 0
239 -101 0 -100 0 3 -37z"/>
<path d="M4440 850 c0 -36 3 -40 24 -40 57 0 56 4 56 -205 l0 -192 -40 -7
c-38 -6 -40 -8 -40 -41 l0 -35 140 0 140 0 0 34 c0 33 -2 35 -45 42 l-45 6 0
239 0 239 -95 0 -95 0 0 -40z"/>
</g>
</svg>
